<svg width="435" height="691" viewBox="0 0 435 691" fill="none" xmlns="http://www.w3.org/2000/svg">
<g clip-path="url(#clip0_1_24)">
<rect width="435" height="691" transform="matrix(-1 0 0 1 435 0)" fill="#00422F"/>
<g opacity="0.1">
<path d="M297.424 495.381L248.014 613.852C263.831 642.229 283.094 663.905 311.988 669.117L311.753 670.44C250.676 659.437 226.637 595.899 202.442 536.994L167.596 620.636H165.717L113.41 495.794C107.851 484.46 106.441 482.557 95.1656 482.557V481.068H128.601V482.557C116.934 482.557 116.699 484.046 124.529 502.247L169.476 609.054L201.032 533.685C180.673 484.129 159.453 438.461 115.525 430.105C113.645 429.692 111.688 429.361 109.808 429.113C109.808 428.699 109.808 428.285 109.887 427.789C111.531 428.037 113.254 428.285 114.898 428.616C191.401 442.432 210.037 544.027 246.37 611.039L292.099 501.42C299.46 483.881 295.623 482.557 282.859 482.557V481.068H316.451V482.557C305.567 482.557 302.748 482.557 297.424 495.381Z" fill="#F0B8B1"/>
<path d="M188.269 396.599C187.72 396.847 187.172 397.096 186.624 397.344C171.903 378.481 152.171 363.672 130.637 354.985C117.639 371.532 108.712 391.635 104.875 412.815C104.014 417.53 103.387 422.329 103.074 427.127C103.074 427.541 103.074 427.954 102.996 428.451C102.213 441.44 103.387 454.677 107.459 466.921C108.242 469.237 109.104 471.554 110.043 473.788H108.79C108.007 471.968 107.381 470.065 106.755 468.162C102.448 455.421 100.96 441.853 101.743 428.368C101.743 427.954 101.743 427.541 101.821 427.044C103.622 400.405 114.35 374.013 130.089 353.827L130.402 353.496L130.794 353.662C152.954 362.431 173.234 377.323 188.425 396.682L188.269 396.599Z" fill="#F0B8B1"/>
<path d="M210.35 513.499C209.802 512.341 209.254 511.183 208.706 510.107C213.091 492.403 214.578 473.788 211.916 455.587C209.645 439.372 203.929 424.232 195.786 410.664C196.334 410.416 196.882 410.167 197.508 410.002C201.032 415.793 204.086 421.915 206.591 428.286C217.632 455.256 217.554 485.453 210.35 513.582V513.499Z" fill="#F0B8B1"/>
<path d="M123.433 537.739C84.3597 528.308 63.6093 501.255 52.96 479.827C41.2145 456.249 39.1003 434.407 39.022 434.159V433.58L39.4918 433.415C39.805 433.332 65.7235 425.803 94.6175 426.548C94.6175 426.962 94.6175 427.375 94.5392 427.872C67.9943 427.21 44.0334 433.497 40.2748 434.49C40.6663 437.965 43.407 457.821 53.9779 479.165C64.3923 500.096 84.6729 526.653 122.728 536.084L123.355 537.574L123.433 537.739Z" fill="#F0B8B1"/>
<path d="M133.3 444.252C133.3 444.252 134.083 444.666 134.474 444.914C126.409 453.683 119.283 463.446 113.019 473.704H111.531C117.796 463.032 125.078 453.187 133.378 444.252H133.3Z" fill="#F0B8B1"/>
<path d="M227.89 509.941C224.602 514.491 219.59 520.531 215.518 524.915C215.049 523.923 214.579 522.847 214.109 521.854C217.946 517.8 222.409 512.754 225.776 508.204C249.894 476.187 264.301 432.422 250.677 392.38C231.179 392.38 211.681 396.351 193.437 403.797C192.889 404.045 192.341 404.293 191.714 404.458C175.427 411.242 160.158 420.839 146.768 432.67C146.376 432.422 146.063 432.256 145.672 432.008C159.218 420.012 174.566 410.332 190.931 403.383C191.479 403.135 192.027 402.886 192.575 402.721C204.556 397.84 217.006 394.365 229.848 392.628C236.895 391.635 243.943 390.973 251.068 391.139H251.46L251.616 391.552C266.024 432.091 252.008 477.014 227.734 509.941H227.89Z" fill="#F0B8B1"/>
</g>
</g>
<defs>
<clipPath id="clip0_1_24">
<rect width="435" height="691" fill="white" transform="matrix(-1 0 0 1 435 0)"/>
</clipPath>
</defs>
</svg>
