<svg width="1440" height="654" viewBox="0 0 1440 654" fill="none" xmlns="http://www.w3.org/2000/svg">
<g clip-path="url(#clip0_1_2)">
<rect width="1440" height="654" transform="matrix(-1 0 0 1 1440 0)" fill="#00422F"/>
<g opacity="0.1">
<path d="M1115.68 269.91L1017.12 506.244C1048.67 562.851 1087.1 606.091 1144.73 616.489L1144.27 619.129C1022.43 597.179 974.472 470.43 926.205 352.924L856.694 519.777H852.945L748.6 270.735C737.51 248.125 734.698 244.329 712.205 244.329V241.358H778.904V244.329C755.63 244.329 755.161 247.3 770.781 283.608L860.443 496.671L923.393 346.322C882.78 247.465 840.449 156.364 752.818 139.695C749.069 138.87 745.164 138.21 741.415 137.715C741.415 136.89 741.415 136.064 741.571 135.074C744.852 135.569 748.288 136.064 751.568 136.725C904.18 164.286 941.357 366.952 1013.84 500.632L1105.06 281.958C1119.74 246.97 1112.09 244.329 1086.63 244.329V241.358H1153.64V244.329C1131.93 244.329 1126.3 244.329 1115.68 269.91Z" fill="#F0B8B1"/>
<path d="M897.931 72.8552C896.837 73.3503 895.744 73.8454 894.651 74.3405C865.284 36.712 825.921 7.17027 782.964 -10.1587C757.035 22.8488 739.227 62.9529 731.573 105.203C729.855 114.61 728.605 124.182 727.981 133.754C727.981 134.579 727.981 135.404 727.824 136.395C726.262 162.306 728.605 188.712 736.728 213.137C738.29 217.758 740.008 222.379 741.883 226.835H739.383C737.821 223.204 736.572 219.409 735.322 215.613C726.731 190.197 723.763 163.131 725.325 136.23C725.325 135.404 725.325 134.579 725.481 133.589C729.074 80.4469 750.474 27.8 781.871 -12.4692L782.496 -13.1293L783.277 -12.7993C827.483 4.6947 867.94 34.4015 898.243 73.0202L897.931 72.8552Z" fill="#F0B8B1"/>
<path d="M941.981 306.053C940.887 303.743 939.794 301.432 938.7 299.287C947.448 263.969 950.416 226.835 945.105 190.527C940.575 158.18 929.172 127.978 912.927 100.912C914.02 100.416 915.113 99.9213 916.363 99.5913C923.392 111.144 929.484 123.357 934.483 136.065C956.508 189.867 956.351 250.105 941.981 306.218V306.053Z" fill="#F0B8B1"/>
<path d="M768.594 354.409C690.648 335.595 649.254 281.628 628.01 238.883C604.58 191.847 600.362 148.277 600.206 147.782V146.627L601.143 146.297C601.768 146.132 653.472 131.113 711.111 132.599C711.111 133.424 711.111 134.249 710.955 135.239C658.001 133.919 610.203 146.462 602.705 148.442C603.486 155.374 608.953 194.983 630.041 237.563C650.816 279.317 691.273 332.294 767.188 351.108L768.438 354.079L768.594 354.409Z" fill="#F0B8B1"/>
<path d="M788.276 167.917C788.276 167.917 789.838 168.742 790.619 169.237C774.53 186.731 760.315 206.206 747.819 226.67H744.851C757.347 205.38 771.874 185.741 788.432 167.917H788.276Z" fill="#F0B8B1"/>
<path d="M976.971 298.957C970.411 308.034 960.413 320.081 952.291 328.828C951.354 326.848 950.416 324.702 949.479 322.722C957.133 314.635 966.037 304.568 972.754 295.491C1020.86 231.621 1049.61 144.316 1022.43 64.4383C983.532 64.4383 944.637 72.3601 908.241 87.2135C907.148 87.7086 906.054 88.2037 904.805 88.5338C872.314 102.067 841.854 121.211 815.143 144.812C814.362 144.316 813.738 143.986 812.957 143.491C839.98 119.561 870.596 100.251 903.243 86.3883C904.336 85.8932 905.43 85.398 906.523 85.068C930.422 75.3308 955.259 68.3992 980.876 64.9334C994.935 62.9529 1008.99 61.6326 1023.21 61.9627H1023.99L1024.3 62.7879C1053.04 143.656 1025.08 233.272 976.659 298.957H976.971Z" fill="#F0B8B1"/>
</g>
</g>
<defs>
<clipPath id="clip0_1_2">
<rect width="1440" height="654" fill="white" transform="matrix(-1 0 0 1 1440 0)"/>
</clipPath>
</defs>
</svg>
