<svg xmlns="http://www.w3.org/2000/svg" fill="none" viewBox="8.94 9.16 223.12 57.61">
<path d="M71.0343 44.5797L69.6174 49.5186H53.8425V49.2912C55.4169 49.2912 56.0466 49.2587 56.0466 47.7315V30.413C56.0466 28.8859 55.4169 28.8534 53.8425 28.8534V28.6259H68.5154L69.9323 33.5648L69.6804 33.6298C68.295 29.0808 68.0431 28.9833 65.1463 28.9833H57.369V38.3087H62.0921C63.5719 38.3087 63.9813 37.9838 64.2332 36.814H64.3906V40.1933H64.2332C63.9813 39.0235 63.5719 38.6986 62.0921 38.6986H57.369V47.634C57.369 48.9662 57.8414 49.0962 59.0064 49.1287H66.2483C69.46 49.1287 69.4285 48.8688 70.7824 44.5148H71.0343V44.5797Z" fill="#2A513C"/>
<path d="M78.3707 49.3236V49.5511H72.6401V49.3236C74.2145 49.3236 74.8442 49.2911 74.8442 47.764V30.4455C74.8442 28.9183 74.2145 28.8859 72.6401 28.8859V28.6584H78.3707V28.8859C76.7964 28.8859 76.1667 28.9183 76.1667 30.4455V47.764C76.1667 49.2911 76.7964 49.3236 78.3707 49.3236Z" fill="#2A513C"/>
<path d="M79.9451 49.3236C81.0156 49.3236 82.1177 49.2912 82.1177 47.764V30.4455C82.1177 28.9183 80.9526 28.8859 79.9451 28.8859V28.6584H83.1882L97.0109 47.4066V30.4455C97.0109 28.9183 95.8144 28.8859 94.8068 28.8859V28.6584H99.6243V28.8859C98.5853 28.8859 97.4202 28.9183 97.4202 30.4455V48.0239H97.4517V49.9085H97.0739L82.59 30.283V47.764C82.59 49.2912 83.755 49.3236 84.7626 49.3236V49.5511H79.9766V49.3236H79.9451Z" fill="#2A513C"/>
<path d="M111.495 49.5511H101.23V49.3236C102.805 49.3236 103.403 49.2911 103.434 47.764V30.4455C103.434 28.9183 102.805 28.8859 101.23 28.8859V28.6584H110.771C117.005 28.6584 117.54 36.3916 112.377 37.7563C120.658 38.4711 120.374 49.5511 111.526 49.5511H111.495ZM104.757 29.0483V37.7238H110.739C115.935 37.7238 116.029 29.0483 110.739 29.0483H104.725H104.757ZM111.495 38.0812H104.757V47.764C104.757 49.0962 105.198 49.2262 106.394 49.2587H111.526C118.705 49.2587 118.831 38.0812 111.526 38.0812H111.495Z" fill="#2A513C"/>
<path d="M136.842 44.5473L135.456 49.4861H119.681V49.2587C121.256 49.2587 121.854 49.2262 121.854 47.699V30.3805C121.854 28.8534 121.256 28.8209 119.681 28.8209V28.5934H134.323L135.74 33.5323L135.519 33.5973C134.102 29.0483 133.85 28.9833 130.954 28.9833H123.208V47.6016C123.208 48.9337 123.649 49.0637 124.845 49.0962H132.056C135.267 49.0962 135.236 48.8363 136.621 44.4823H136.842V44.5473ZM157.245 49.3237V49.5186H154.506C153.152 46.5293 150.853 39.7384 146.634 39.7384H142.478V47.7315C142.478 49.2587 143.108 49.2912 144.682 49.2912V49.5186H138.951V49.2912C140.526 49.2912 141.155 49.2587 141.155 47.7315V39.7384H130.954C129.474 39.7384 129.033 40.0633 128.813 41.233H128.655V37.8863H128.813C129.033 38.991 129.411 39.3485 130.733 39.3809H141.155V30.4455C141.155 28.9184 140.526 28.8859 138.951 28.8859V28.6584H146.666C151.829 28.6584 154.38 30.8029 154.411 34.2146C154.411 37.1715 152.396 39.2185 148.366 39.6734C154.159 41.103 154.789 49.3561 157.277 49.3561L157.245 49.3237ZM142.478 39.3809H146.666C150.916 39.3809 152.9 37.074 152.9 34.0522C152.9 31.0304 150.759 29.0483 146.666 29.0483H142.478V39.3809Z" fill="#2A513C"/>
<path d="M175.602 41.5579C175.602 40.0633 175.004 40.0308 173.429 40.0308V39.8033H179.16V40.0308C177.586 40.0308 176.956 40.0633 176.956 41.5579V46.0419C174.72 48.6088 171.603 49.8435 168.581 49.8435C163.165 49.8435 157.938 45.9444 157.938 38.991C157.938 32.0376 163.07 28.3985 168.738 28.3985C171.446 28.3985 174.343 29.2758 176.83 31.1278V32.8824H176.641C174.72 30.1206 171.603 28.7884 168.581 28.7884C163.763 28.7884 158.977 32.1026 158.977 38.2762C158.977 45.0346 164.078 48.9987 169.273 48.9987C171.477 48.9987 173.713 48.2839 175.602 46.7567V41.5579Z" fill="#2A513C"/>
<path d="M198.556 44.5797L197.139 49.5186H181.364V49.2912C182.938 49.2912 183.568 49.2587 183.568 47.7315V30.413C183.568 28.8859 182.938 28.8534 181.364 28.8534V28.6259H196.037L197.454 33.5648L197.202 33.6298C195.816 29.0808 195.565 28.9833 192.668 28.9833H184.891V38.3087H189.614C191.093 38.3087 191.503 37.9838 191.755 36.814H191.912V40.1933H191.755C191.503 39.0235 191.093 38.6986 189.614 38.6986H184.891V47.634C184.891 48.9662 185.363 49.0962 186.528 49.1287H193.77C196.981 49.1287 196.95 48.8688 198.304 44.5148H198.556V44.5797Z" fill="#2A513C"/>
<path d="M232.058 50.2984C228.972 52.9303 226.39 54.0026 224.123 54.0026C215.59 54.0026 211.717 39.2185 204.57 39.2185C204.098 39.2185 203.562 39.2835 203.027 39.4459V47.7965C203.027 49.3237 203.657 49.3561 205.231 49.3561V49.5836H199.5V49.3561C201.075 49.3561 201.705 49.3237 201.705 47.7965V30.478C201.705 28.9508 201.075 28.9183 199.5 28.9183V28.6909H207.215C212.882 28.6909 215.433 31.2903 215.433 34.2471C215.433 38.4712 211.938 40.1933 208.443 39.7709C213.921 43.0201 217.731 52.8978 224.847 52.8978C226.863 52.8978 229.161 52.118 231.869 50.136L232.026 50.2984H232.058ZM205.074 38.7636C205.483 38.7636 205.892 38.8286 206.333 38.8936C206.333 38.8936 206.396 38.8936 206.396 38.926C206.459 38.926 206.491 38.9585 206.554 38.9585L206.837 39.0235C206.837 39.0235 206.931 39.056 206.963 39.056C207.593 39.2185 208.254 39.2835 208.884 39.2835C211.717 39.2835 214.079 37.5939 214.079 34.1496C214.079 31.4203 211.969 29.0158 207.246 29.0158H203.058V39.056C203.751 38.8286 204.475 38.7311 205.105 38.7311L205.074 38.7636Z" fill="#2A513C"/>
<path d="M64.6741 57.7392H65.5872L68.5785 66.6097H67.6653L66.028 61.5083C65.6817 60.4686 65.3983 59.5263 65.1149 58.4865H65.0519C64.7686 59.5588 64.4852 60.5011 64.1388 61.5083L62.5015 66.6097H61.6199L64.6111 57.7392H64.6741ZM63.1627 63.0355H67.0986V63.7503H63.1627V63.0355Z" fill="#484A48"/>
<path d="M76.4817 57.7392H81.3621V58.4865H77.3318V61.5733H80.7324V62.3207H77.3318V65.8948H81.4881V66.6422H76.4817V57.7717V57.7392Z" fill="#484A48"/>
<path d="M89.3284 65.4399L89.8636 64.8551C90.4934 65.5374 91.375 65.9923 92.3511 65.9923C93.5791 65.9923 94.3348 65.3425 94.3348 64.3677C94.3348 63.3604 93.6735 63.0355 92.8234 62.6456L91.5324 62.0607C90.7453 61.7033 89.7692 61.1184 89.7692 59.8187C89.7692 58.519 90.9027 57.5443 92.4141 57.5443C93.4531 57.5443 94.3348 58.0316 94.9015 58.6165L94.4292 59.2014C93.894 58.6815 93.2327 58.3241 92.4141 58.3241C91.3435 58.3241 90.6508 58.8764 90.6508 59.7537C90.6508 60.696 91.4695 61.0534 92.1307 61.3459L93.4217 61.9307C94.3977 62.3856 95.2479 62.938 95.2479 64.3027C95.2479 65.6674 94.1458 66.7721 92.3826 66.7721C91.1231 66.7721 90.1155 66.2522 89.3913 65.4399H89.3284Z" fill="#484A48"/>
<path d="M105.135 58.4865H102.427V57.7392H108.693V58.4865H105.985V66.6422H105.135V58.4865Z" fill="#484A48"/>
<path d="M116.911 57.7392H117.761V61.5408H122.106V57.7392H122.956V66.6097H122.106V62.2882H117.761V66.6097H116.911V57.7392Z" fill="#484A48"/>
<path d="M132.024 57.7392H136.905V58.4865H132.875V61.5733H136.275V62.3207H132.875V65.8948H137.031V66.6422H132.024V57.7717V57.7392Z" fill="#484A48"/>
<path d="M147.39 58.4865H144.682V57.7392H150.948V58.4865H148.24V66.6422H147.39V58.4865Z" fill="#484A48"/>
<path d="M159.135 57.7392H159.985V66.6097H159.135V57.7392Z" fill="#484A48"/>
<path d="M168.549 62.1582C168.549 59.3313 170.123 57.5443 172.327 57.5443C173.367 57.5443 174.154 58.0641 174.658 58.6165L174.185 59.2014C173.713 58.6815 173.115 58.3241 172.359 58.3241C170.596 58.3241 169.462 59.7862 169.462 62.1257C169.462 64.4652 170.564 65.9923 172.327 65.9923C173.178 65.9923 173.839 65.6349 174.437 64.9525L174.909 65.5049C174.248 66.3172 173.398 66.7721 172.296 66.7721C170.155 66.7721 168.581 65.0175 168.581 62.1582H168.549Z" fill="#484A48"/>
<path d="M182.246 65.4399L182.781 64.8551C183.411 65.5374 184.292 65.9923 185.269 65.9923C186.497 65.9923 187.252 65.3425 187.252 64.3677C187.252 63.3604 186.591 63.0355 185.741 62.6456L184.45 62.0607C183.663 61.7033 182.687 61.1184 182.687 59.8187C182.687 58.519 183.82 57.5443 185.332 57.5443C186.371 57.5443 187.252 58.0316 187.819 58.6165L187.347 59.2014C186.811 58.6815 186.15 58.3241 185.332 58.3241C184.261 58.3241 183.568 58.8764 183.568 59.7537C183.568 60.696 184.387 61.0534 185.048 61.3459L186.339 61.9307C187.315 62.3856 188.165 62.938 188.165 64.3027C188.165 65.6674 187.063 66.7721 185.3 66.7721C184.041 66.7721 183.033 66.2522 182.309 65.4399H182.246Z" fill="#484A48"/>
<path d="M49.2768 30.8679L41.5626 48.9337C44.0185 53.2552 47.0413 56.5695 51.5439 57.3493V57.5443C41.9719 55.8546 38.225 46.1719 34.4465 37.1714L28.9993 49.941H28.7159L20.5609 30.9004C19.7107 29.1783 19.4903 28.8859 17.7271 28.8859V28.6584H22.9539V28.8859C21.1276 28.8859 21.0961 29.1133 22.3241 31.9077L29.3457 48.1864L34.2891 36.6841C31.1089 29.1133 27.8028 22.1599 20.9387 20.8927C20.6553 20.8277 20.3405 20.7952 20.0571 20.7302C20.0571 20.6652 20.0571 20.6003 20.0571 20.5353C20.309 20.5678 20.5923 20.6003 20.8442 20.6652C32.7777 22.7773 35.706 38.2762 41.3736 48.4788L48.5211 31.7452C49.6862 29.0808 49.0564 28.8534 47.0728 28.8534V28.6259H52.3311V28.8534C50.6308 28.8534 50.1899 28.8534 49.3713 30.8029L49.2768 30.8679Z" fill="#2A513C"/>
<path d="M32.2423 15.7914C32.2423 15.7914 32.0849 15.8563 31.9904 15.8888C29.6919 12.997 26.6062 10.755 23.2371 9.42283C21.1904 11.9572 19.805 15.0115 19.2068 18.2283C19.0808 18.9431 18.9864 19.6905 18.9234 20.4053C18.9234 20.4053 18.9234 20.5353 18.9234 20.6003C18.7974 22.5823 18.9864 24.5968 19.6161 26.4814C19.742 26.8388 19.868 27.1962 20.0254 27.5212H19.8365C19.7106 27.2287 19.6161 26.9688 19.5216 26.6764C18.8604 24.7268 18.6085 22.6798 18.7345 20.6003C18.7345 20.5353 18.7345 20.4703 18.7345 20.4053C19.0178 16.3437 20.6866 12.3147 23.1426 9.22787V9.16289H23.2371C26.7006 10.4951 29.8808 12.7696 32.2423 15.7264V15.7914Z" fill="#E4BEB9"/>
<path d="M35.6743 33.6298C35.5798 33.4673 35.5168 33.2723 35.4224 33.1099C36.1151 30.413 36.3355 27.5537 35.9262 24.7918C35.5798 22.3224 34.6982 20.0154 33.4072 17.9359C33.5017 17.9034 33.5961 17.8709 33.6591 17.8384C34.1944 18.7157 34.6667 19.658 35.076 20.6328C36.8078 24.7593 36.7763 29.3407 35.6743 33.6298Z" fill="#E4BEB9"/>
<path d="M22.1036 37.3339C15.9952 35.9042 12.752 31.7777 11.1147 28.4959C9.28849 24.8893 8.94214 21.575 8.94214 21.5425V21.4451H9.00511C9.06809 21.4451 13.0984 20.2753 17.6325 20.4053C17.6325 20.4703 17.6325 20.5353 17.6325 20.6003C13.5077 20.5028 9.7608 21.4451 9.16255 21.6075C9.22552 22.1274 9.66634 25.1817 11.3036 28.431C12.941 31.6152 16.0896 35.6768 22.0406 37.1065L22.1351 37.3339H22.1036Z" fill="#E4BEB9"/>
<path d="M23.6464 23.0697C23.6464 23.0697 23.7724 23.1347 23.8354 23.1672C22.5759 24.4994 21.4738 25.994 20.4978 27.5537H20.2773C21.2534 25.929 22.387 24.4344 23.6779 23.0697H23.6464Z" fill="#E4BEB9"/>
<path d="M38.4138 33.0774C37.91 33.7597 37.1228 34.702 36.4931 35.3519C36.4301 35.1894 36.3671 35.0269 36.2727 34.897C36.8709 34.2796 37.5636 33.4998 38.0989 32.8174C41.8773 27.9436 44.1129 21.2501 42.0033 15.1415C38.949 15.1415 35.9263 15.7589 33.061 16.8636C32.9666 16.8961 32.8721 16.9286 32.8091 16.9611C30.2587 18.0009 27.8972 19.463 25.7876 21.2501C25.7246 21.2176 25.6616 21.1851 25.6301 21.1526C27.7397 19.333 30.1327 17.8384 32.7147 16.7986C32.8091 16.7661 32.9036 16.7336 32.9666 16.7012C34.8243 15.9538 36.7765 15.4339 38.7916 15.1415C39.8936 14.979 40.9957 14.8816 42.0977 14.9141H42.1607V14.979C44.4277 21.1526 42.2237 28.0085 38.4453 33.0449L38.4138 33.0774Z" fill="#E4BEB9"/>
</svg>