<svg fill="none" xmlns="http://www.w3.org/2000/svg" viewBox="8.44 8.66 223.62 58.11"> <path d="M71.0346 44.5797L69.6177 49.5186H53.8428V49.2911C55.4171 49.2911 56.0468 49.2586 56.0468 47.7315V30.413C56.0468 28.8858 55.4171 28.8533 53.8428 28.8533V28.6259H68.5156L69.9325 33.5647L69.6806 33.6297C68.2952 29.0808 68.0433 28.9833 65.1465 28.9833H57.3693V38.3087H62.0923C63.5722 38.3087 63.9815 37.9837 64.2334 36.814H64.3909V40.1932H64.2334C63.9815 39.0235 63.5722 38.6986 62.0923 38.6986H57.3693V47.634C57.3693 48.9662 57.8416 49.0962 59.0066 49.1287H66.2486C69.4602 49.1287 69.4287 48.8687 70.7827 44.5147H71.0346V44.5797Z" fill="#2A513C"></path> <path d="M78.3712 49.3236V49.5511H72.6406V49.3236C74.215 49.3236 74.8447 49.2911 74.8447 47.764V30.4455C74.8447 28.9183 74.215 28.8858 72.6406 28.8858V28.6584H78.3712V28.8858C76.7969 28.8858 76.1671 28.9183 76.1671 30.4455V47.764C76.1671 49.2911 76.7969 49.3236 78.3712 49.3236Z" fill="#2A513C"></path> <path d="M79.9453 49.3236C81.0159 49.3236 82.1179 49.2911 82.1179 47.764V30.4455C82.1179 28.9183 80.9529 28.8858 79.9453 28.8858V28.6584H83.1885L97.0112 47.4066V30.4455C97.0112 28.9183 95.8147 28.8858 94.8071 28.8858V28.6584H99.6246V28.8858C98.5855 28.8858 97.4205 28.9183 97.4205 30.4455V48.0239H97.452V49.9085H97.0741L82.5902 30.283V47.764C82.5902 49.2911 83.7552 49.3236 84.7628 49.3236V49.5511H79.9768V49.3236H79.9453Z" fill="#2A513C"></path> <path d="M111.495 49.5511H101.23V49.3236C102.805 49.3236 103.403 49.2911 103.435 47.764V30.4455C103.435 28.9183 102.805 28.8858 101.23 28.8858V28.6584H110.771C117.005 28.6584 117.541 36.3916 112.377 37.7563C120.658 38.4711 120.374 49.5511 111.527 49.5511H111.495ZM104.757 29.0483V37.7238H110.739C115.935 37.7238 116.029 29.0483 110.739 29.0483H104.725H104.757ZM111.495 38.0812H104.757V47.764C104.757 49.0962 105.198 49.2261 106.394 49.2586H111.527C118.706 49.2586 118.832 38.0812 111.527 38.0812H111.495Z" fill="#2A513C"></path> <path d="M136.842 44.5472L135.457 49.4861H119.682V49.2586C121.256 49.2586 121.854 49.2261 121.854 47.699V30.3805C121.854 28.8533 121.256 28.8208 119.682 28.8208V28.5934H134.323L135.74 33.5322L135.52 33.5972C134.103 29.0483 133.851 28.9833 130.954 28.9833H123.208V47.6015C123.208 48.9337 123.649 49.0637 124.845 49.0962H132.056C135.268 49.0962 135.236 48.8362 136.622 44.4822H136.842V44.5472ZM157.245 49.3236V49.5186H154.506C153.152 46.5293 150.854 39.7383 146.634 39.7383H142.478V47.7315C142.478 49.2586 143.108 49.2911 144.682 49.2911V49.5186H138.952V49.2911C140.526 49.2911 141.156 49.2586 141.156 47.7315V39.7383H130.954C129.474 39.7383 129.033 40.0632 128.813 41.233H128.655V37.8862H128.813C129.033 38.991 129.411 39.3484 130.734 39.3809H141.156V30.4455C141.156 28.9183 140.526 28.8858 138.952 28.8858V28.6584H146.666C151.83 28.6584 154.38 30.8029 154.412 34.2146C154.412 37.1714 152.396 39.2184 148.366 39.6733C154.16 41.103 154.789 49.3561 157.277 49.3561L157.245 49.3236ZM142.478 39.3809H146.666C150.917 39.3809 152.9 37.0739 152.9 34.0521C152.9 31.0303 150.759 29.0483 146.666 29.0483H142.478V39.3809Z" fill="#2A513C"></path> <path d="M175.603 41.5579C175.603 40.0633 175.004 40.0308 173.43 40.0308V39.8033H179.161V40.0308C177.586 40.0308 176.957 40.0633 176.957 41.5579V46.0419C174.721 48.6088 171.604 49.8435 168.581 49.8435C163.165 49.8435 157.938 45.9444 157.938 38.991C157.938 32.0376 163.071 28.3984 168.738 28.3984C171.446 28.3984 174.343 29.2757 176.831 31.1278V32.8824H176.642C174.721 30.1205 171.604 28.7883 168.581 28.7883C163.764 28.7883 158.978 32.1026 158.978 38.2762C158.978 45.0346 164.078 48.9987 169.274 48.9987C171.478 48.9987 173.713 48.2839 175.603 46.7567V41.5579Z" fill="#2A513C"></path> <path d="M198.556 44.5797L197.139 49.5186H181.364V49.2911C182.939 49.2911 183.568 49.2586 183.568 47.7315V30.413C183.568 28.8858 182.939 28.8533 181.364 28.8533V28.6259H196.037L197.454 33.5647L197.202 33.6297C195.817 29.0808 195.565 28.9833 192.668 28.9833H184.891V38.3087H189.614C191.094 38.3087 191.503 37.9837 191.755 36.814H191.912V40.1932H191.755C191.503 39.0235 191.094 38.6986 189.614 38.6986H184.891V47.634C184.891 48.9662 185.363 49.0962 186.528 49.1287H193.77C196.982 49.1287 196.95 48.8687 198.304 44.5147H198.556V44.5797Z" fill="#2A513C"></path> <path d="M232.058 50.2984C228.973 52.9303 226.391 54.0025 224.124 54.0025C215.591 54.0025 211.718 39.2184 204.57 39.2184C204.098 39.2184 203.563 39.2834 203.028 39.4459V47.7965C203.028 49.3236 203.657 49.3561 205.232 49.3561V49.5835H199.501V49.3561C201.075 49.3561 201.705 49.3236 201.705 47.7965V30.4779C201.705 28.9508 201.075 28.9183 199.501 28.9183V28.6909H207.215C212.883 28.6909 215.433 31.2903 215.433 34.2471C215.433 38.4711 211.938 40.1932 208.443 39.7708C213.922 43.0201 217.732 52.8978 224.848 52.8978C226.863 52.8978 229.162 52.118 231.869 50.1359L232.027 50.2984H232.058ZM205.074 38.7635C205.483 38.7635 205.893 38.8285 206.334 38.8935C206.334 38.8935 206.397 38.8935 206.397 38.926C206.46 38.926 206.491 38.9585 206.554 38.9585L206.837 39.0235C206.837 39.0235 206.932 39.056 206.963 39.056C207.593 39.2184 208.254 39.2834 208.884 39.2834C211.718 39.2834 214.079 37.5938 214.079 34.1496C214.079 31.4202 211.97 29.0158 207.247 29.0158H203.059V39.056C203.752 38.8285 204.476 38.731 205.106 38.731L205.074 38.7635Z" fill="#2A513C"></path> <path d="M64.6743 57.7392H65.5875L68.5787 66.6096H67.6656L66.0283 61.5083C65.6819 60.4685 65.3985 59.5263 65.1152 58.4865H65.0522C64.7688 59.5587 64.4854 60.501 64.1391 61.5083L62.5017 66.6096H61.6201L64.6114 57.7392H64.6743ZM63.163 63.0354H67.0988V63.7503H63.163V63.0354Z" fill="#484A48"></path> <path d="M76.4814 57.7392H81.3619V58.4865H77.3316V61.5733H80.7322V62.3206H77.3316V65.8948H81.4878V66.6421H76.4814V57.7717V57.7392Z" fill="#484A48"></path> <path d="M89.3281 65.4399L89.8634 64.855C90.4931 65.5374 91.3748 65.9923 92.3509 65.9923C93.5788 65.9923 94.3345 65.3424 94.3345 64.3677C94.3345 63.3604 93.6733 63.0355 92.8232 62.6456L91.5322 62.0607C90.745 61.7033 89.7689 61.1184 89.7689 59.8187C89.7689 58.519 90.9025 57.5442 92.4138 57.5442C93.4529 57.5442 94.3345 58.0316 94.9013 58.6165L94.429 59.2013C93.8937 58.6815 93.2325 58.324 92.4138 58.324C91.3433 58.324 90.6506 58.8764 90.6506 59.7537C90.6506 60.696 91.4692 61.0534 92.1304 61.3458L93.4214 61.9307C94.3975 62.3856 95.2476 62.938 95.2476 64.3027C95.2476 65.6674 94.1456 66.7721 92.3823 66.7721C91.1229 66.7721 90.1153 66.2522 89.3911 65.4399H89.3281Z" fill="#484A48"></path> <path d="M105.135 58.4865H102.427V57.7392H108.693V58.4865H105.985V66.6421H105.135V58.4865Z" fill="#484A48"></path> <path d="M116.911 57.7392H117.761V61.5408H122.106V57.7392H122.957V66.6096H122.106V62.2881H117.761V66.6096H116.911V57.7392Z" fill="#484A48"></path> <path d="M132.024 57.7392H136.905V58.4865H132.875V61.5733H136.275V62.3206H132.875V65.8948H137.031V66.6421H132.024V57.7717V57.7392Z" fill="#484A48"></path> <path d="M147.39 58.4865H144.683V57.7392H150.948V58.4865H148.241V66.6421H147.39V58.4865Z" fill="#484A48"></path> <path d="M159.135 57.7392H159.985V66.6096H159.135V57.7392Z" fill="#484A48"></path> <path d="M168.549 62.1582C168.549 59.3313 170.123 57.5442 172.327 57.5442C173.366 57.5442 174.153 58.0641 174.657 58.6165L174.185 59.2013C173.713 58.6815 173.114 58.324 172.359 58.324C170.595 58.324 169.462 59.7862 169.462 62.1257C169.462 64.4651 170.564 65.9923 172.327 65.9923C173.177 65.9923 173.839 65.6349 174.437 64.9525L174.909 65.5049C174.248 66.3172 173.398 66.7721 172.296 66.7721C170.155 66.7721 168.58 65.0175 168.58 62.1582H168.549Z" fill="#484A48"></path> <path d="M182.246 65.4399L182.781 64.855C183.411 65.5374 184.293 65.9923 185.269 65.9923C186.497 65.9923 187.252 65.3424 187.252 64.3677C187.252 63.3604 186.591 63.0355 185.741 62.6456L184.45 62.0607C183.663 61.7033 182.687 61.1184 182.687 59.8187C182.687 58.519 183.82 57.5442 185.332 57.5442C186.371 57.5442 187.252 58.0316 187.819 58.6165L187.347 59.2013C186.812 58.6815 186.15 58.324 185.332 58.324C184.261 58.324 183.569 58.8764 183.569 59.7537C183.569 60.696 184.387 61.0534 185.048 61.3458L186.339 61.9307C187.315 62.3856 188.166 62.938 188.166 64.3027C188.166 65.6674 187.064 66.7721 185.3 66.7721C184.041 66.7721 183.033 66.2522 182.309 65.4399H182.246Z" fill="#484A48"></path> <path d="M49.2773 30.8679L41.563 48.9337C44.019 53.2552 47.0418 56.5695 51.5444 57.3493V57.5443C41.9724 55.8546 38.2254 46.1719 34.447 37.1714L28.9998 49.941H28.7164L20.5614 30.9004C19.7112 29.1783 19.4908 28.8859 17.7275 28.8859V28.6584H22.9543V28.8859C21.1281 28.8859 21.0966 29.1133 22.3246 31.9077L29.3462 48.1864L34.2896 36.6841C31.1094 29.1133 27.8033 22.1599 20.9392 20.8927C20.6558 20.8277 20.3409 20.7952 20.0576 20.7302C20.0576 20.6652 20.0576 20.6003 20.0576 20.5353C20.3095 20.5678 20.5928 20.6003 20.8447 20.6652C32.7782 22.7773 35.7065 38.2762 41.3741 48.4788L48.5216 31.7452C49.6866 29.0808 49.0569 28.8534 47.0732 28.8534V28.6259H52.3315V28.8534C50.6313 28.8534 50.1904 28.8534 49.3718 30.8029L49.2773 30.8679Z" fill="#2A513C"></path> <path d="M32.4922 15.9588L32.3379 16.0223H32.3369L32.3359 16.0233C32.3347 16.0238 32.3324 16.0243 32.3301 16.0252C32.3254 16.0271 32.3189 16.0306 32.3105 16.034C32.2939 16.0408 32.2705 16.0499 32.2441 16.0604C32.1926 16.0808 32.1244 16.1065 32.0713 16.1248L31.9043 16.1824L31.7949 16.0447C29.5636 13.2375 26.5789 11.0506 23.3164 9.72638C21.361 12.1978 20.0319 15.1559 19.4521 18.2703L19.4531 18.2713C19.3294 18.9734 19.2362 19.7087 19.1738 20.4129V20.6082L19.1729 20.616C19.0485 22.5724 19.2359 24.5538 19.8535 26.4022H19.8525C19.9789 26.7608 20.1004 27.103 20.25 27.4119L20.4248 27.7713H19.6719L19.6064 27.6199C19.4774 27.3202 19.3811 27.0535 19.2852 26.7567L19.1641 26.3836C18.5836 24.5175 18.366 22.5698 18.4844 20.5955V20.3963L18.4854 20.3875C18.7704 16.3035 20.4379 12.2587 22.8926 9.14435V8.9129H23.2832L23.3271 8.9295C26.8305 10.2771 30.0474 12.5776 32.4375 15.5701L32.4922 15.6385V15.9588Z" fill="#E4BEB9" stroke="#E4BEB9" stroke-width="0.5"></path> <path d="M33.8721 17.7085C34.2789 18.3754 34.6501 19.078 34.9844 19.8033L35.3066 20.5357L35.4658 20.9302C37.061 25.0151 36.9931 29.5 35.916 33.6919L35.7646 34.2827L35.458 33.7554C35.4025 33.66 35.3576 33.5571 35.3193 33.4702C35.279 33.3786 35.2449 33.3028 35.2061 33.2359L35.1543 33.147L35.1807 33.0474C35.8661 30.3787 36.0825 27.5533 35.6787 24.8286V24.8267C35.3376 22.3945 34.4692 20.1201 33.1953 18.0679L33.0293 17.8013L33.3262 17.6997C33.4276 17.6648 33.5019 17.6379 33.5449 17.6158L33.751 17.5093L33.8721 17.7085Z" fill="#E4BEB9" stroke="#E4BEB9" stroke-width="0.5"></path> <path d="M17.6396 20.155L17.8828 20.1628V20.8562L17.627 20.8503C13.8796 20.7618 10.4425 21.5398 9.44043 21.7937C9.56826 22.6714 10.0655 25.4169 11.5273 28.3181C13.0949 31.3661 16.0527 35.2086 21.5586 36.7243L22.0996 36.863L22.2227 36.8933L22.2715 37.0105L22.3662 37.238L22.5098 37.5837H22.0752L22.0469 37.5769C15.8433 36.1249 12.5499 31.9316 10.8916 28.6081C9.96809 26.7841 9.41869 25.0355 9.10059 23.739C8.9415 23.0905 8.84026 22.5538 8.77832 22.1765C8.74738 21.988 8.72629 21.8386 8.71289 21.7351C8.7062 21.6834 8.70141 21.6426 8.69824 21.614C8.69666 21.5997 8.69519 21.5876 8.69434 21.5788C8.69402 21.5758 8.69239 21.5577 8.69238 21.5427V21.195H8.97852L9.14648 21.153C9.27238 21.1211 9.45487 21.0755 9.68555 21.0212C10.1468 20.9127 10.803 20.7696 11.5996 20.6306C13.192 20.3526 15.3506 20.0894 17.6396 20.155Z" fill="#E4BEB9" stroke="#E4BEB9" stroke-width="0.5"></path> <path d="M24.2588 22.8197L24.0771 23.0111L24.2451 23.097L24.0166 23.3392C22.7713 24.6565 21.6793 26.137 20.71 27.6859L20.6357 27.804H19.8359L20.0635 27.4251C21.0488 25.7852 22.1926 24.2757 23.4961 22.8978L23.6025 22.9994L23.6465 22.8197H24.2588Z" fill="#E4BEB9" stroke="#E4BEB9" stroke-width="0.5"></path> <path d="M42.1045 14.6637H42.4102V14.9352C44.6914 21.2058 42.4438 28.1308 38.6445 33.1949L38.6357 33.2076L38.6016 33.2418C38.0914 33.9309 37.305 34.8727 36.6719 35.526L36.4004 35.8063L36.2598 35.442C36.1941 35.2725 36.1421 35.1423 36.0703 35.0436L35.9463 34.8737L36.0928 34.7233C36.5378 34.264 37.0354 33.7139 37.4795 33.1832L37.9023 32.6627C41.6139 27.8742 43.7951 21.3485 41.8213 15.3932C38.8626 15.4171 35.933 16.0244 33.1504 17.0973L33.1426 17.1002H33.1416C33.0405 17.135 32.9668 17.1611 32.9238 17.1832L32.9141 17.1881L32.9033 17.193C30.3789 18.2222 28.04 19.67 25.9492 21.441L25.8213 21.5494L25.6729 21.4723C25.6429 21.4568 25.6041 21.4371 25.5693 21.4166C25.5375 21.3978 25.49 21.3679 25.4502 21.3268L25.2656 21.1364L25.4668 20.9635C27.5957 19.1273 30.012 17.6177 32.6211 16.567L32.6328 16.5621L32.8516 16.4791L32.8623 16.4733L32.873 16.4694C34.7496 15.7144 36.721 15.1904 38.7549 14.8951C39.8659 14.7314 40.9833 14.6307 42.1045 14.6637Z" fill="#E4BEB9" stroke="#E4BEB9" stroke-width="0.5"></path> </svg> 