<svg width="1440" height="753" viewBox="0 0 1440 753" fill="none" xmlns="http://www.w3.org/2000/svg">
<g clip-path="url(#clip0_26_128)">
<g opacity="0.1">
<path d="M305.555 313.932L230.787 492.972C254.722 535.857 283.871 568.615 327.595 576.491L327.239 578.492C234.816 561.863 198.439 465.841 161.825 376.821L109.096 503.225H106.253L27.1002 314.557C18.6873 297.428 16.5545 294.552 -0.508301 294.552V292.302H50.0876V294.552C32.4323 294.552 32.0769 296.803 43.926 324.309L111.94 485.721L159.692 371.82C128.884 296.928 96.7732 227.912 30.2995 215.284C27.4557 214.659 24.4934 214.159 21.6496 213.784C21.6496 213.159 21.6496 212.534 21.7681 211.784C24.2564 212.159 26.8632 212.534 29.3516 213.034C145.118 233.914 173.319 387.449 228.299 488.722L297.498 323.059C308.636 296.553 302.83 294.552 283.516 294.552V292.302H334.349V294.552C317.878 294.552 313.613 294.552 305.555 313.932Z" fill="#F0B8B1"/>
<path d="M140.378 164.648C139.549 165.023 138.719 165.398 137.89 165.773C115.613 137.267 85.7534 114.887 53.1683 101.759C33.4987 126.764 19.9906 157.146 14.1846 189.153C12.8811 196.28 11.9332 203.532 11.4593 210.783C11.4593 211.408 11.4593 212.034 11.3408 212.784C10.1558 232.413 11.9332 252.418 18.0948 270.922C19.2797 274.423 20.5831 277.924 22.005 281.299H20.1091C18.9242 278.549 17.9763 275.673 17.0283 272.797C10.5113 253.543 8.25998 233.038 9.4449 212.659C9.4449 212.034 9.4449 211.408 9.56339 210.658C12.2887 170.399 28.522 130.515 52.3388 100.008L52.8128 99.5081L53.4052 99.7581C86.9383 113.011 117.628 135.516 140.615 164.773L140.378 164.648Z" fill="#F0B8B1"/>
<path d="M173.792 341.313C172.963 339.563 172.133 337.812 171.304 336.187C177.94 309.431 180.191 281.299 176.162 253.793C172.726 229.288 164.076 206.407 151.753 185.903C152.582 185.528 153.412 185.153 154.36 184.902C159.692 193.654 164.313 202.907 168.105 212.534C184.812 253.293 184.694 298.928 173.792 341.438V341.313Z" fill="#F0B8B1"/>
<path d="M42.267 377.946C-16.8602 363.693 -48.2605 322.809 -64.3753 290.426C-82.149 254.793 -85.3483 221.786 -85.4668 221.411V220.536L-84.7558 220.285C-84.2819 220.16 -45.0612 208.783 -1.33783 209.908C-1.33783 210.533 -1.33783 211.158 -1.45632 211.909C-41.6249 210.908 -77.8833 220.411 -83.5709 221.911C-82.9785 227.162 -78.8313 257.169 -62.8349 289.426C-47.0756 321.058 -16.3862 361.193 41.2006 375.446L42.1486 377.696L42.267 377.946Z" fill="#F0B8B1"/>
<path d="M57.197 236.664C57.197 236.664 58.3819 237.289 58.9744 237.664C46.7697 250.917 35.987 265.671 26.5077 281.174H24.2563C33.7357 265.046 44.7554 250.167 57.3155 236.664H57.197Z" fill="#F0B8B1"/>
<path d="M200.334 335.937C195.358 342.813 187.774 351.94 181.613 358.567C180.902 357.067 180.191 355.441 179.48 353.941C185.286 347.814 192.04 340.188 197.135 333.311C233.631 284.925 255.433 218.785 234.816 158.271C205.311 158.271 175.807 164.273 148.198 175.525C147.369 175.9 146.539 176.276 145.591 176.526C120.945 186.778 97.8394 201.281 77.5773 219.16C76.9849 218.785 76.5109 218.535 75.9185 218.16C96.4175 200.031 119.642 185.403 144.407 174.9C145.236 174.525 146.065 174.15 146.895 173.9C165.024 166.523 183.864 161.272 203.297 158.647C213.961 157.146 224.625 156.146 235.408 156.396H236L236.237 157.021C258.04 218.285 236.83 286.175 200.098 335.937H200.334Z" fill="#F0B8B1"/>
</g>
<g opacity="0.1">
<path d="M1495.56 313.932L1420.79 492.972C1444.72 535.857 1473.87 568.615 1517.59 576.491L1517.24 578.492C1424.82 561.863 1388.44 465.841 1351.83 376.821L1299.1 503.225H1296.25L1217.1 314.557C1208.69 297.428 1206.55 294.552 1189.49 294.552V292.302H1240.09V294.552C1222.43 294.552 1222.08 296.803 1233.93 324.309L1301.94 485.721L1349.69 371.82C1318.88 296.928 1286.77 227.912 1220.3 215.284C1217.46 214.659 1214.49 214.159 1211.65 213.784C1211.65 213.159 1211.65 212.534 1211.77 211.784C1214.26 212.159 1216.86 212.534 1219.35 213.034C1335.12 233.914 1363.32 387.449 1418.3 488.722L1487.5 323.059C1498.64 296.553 1492.83 294.552 1473.52 294.552V292.302H1524.35V294.552C1507.88 294.552 1503.61 294.552 1495.56 313.932Z" fill="#F0B8B1"/>
<path d="M1330.38 164.648C1329.55 165.023 1328.72 165.398 1327.89 165.773C1305.61 137.267 1275.75 114.887 1243.17 101.759C1223.5 126.764 1209.99 157.146 1204.18 189.153C1202.88 196.28 1201.93 203.532 1201.46 210.783C1201.46 211.408 1201.46 212.034 1201.34 212.784C1200.16 232.413 1201.93 252.418 1208.09 270.922C1209.28 274.423 1210.58 277.924 1212 281.299H1210.11C1208.92 278.549 1207.98 275.673 1207.03 272.797C1200.51 253.543 1198.26 233.038 1199.44 212.659C1199.44 212.034 1199.44 211.408 1199.56 210.658C1202.29 170.399 1218.52 130.515 1242.34 100.008L1242.81 99.5081L1243.41 99.7581C1276.94 113.011 1307.63 135.516 1330.61 164.773L1330.38 164.648Z" fill="#F0B8B1"/>
<path d="M1363.79 341.313C1362.96 339.563 1362.13 337.812 1361.3 336.187C1367.94 309.431 1370.19 281.299 1366.16 253.793C1362.73 229.288 1354.08 206.407 1341.75 185.903C1342.58 185.528 1343.41 185.153 1344.36 184.902C1349.69 193.654 1354.31 202.907 1358.1 212.534C1374.81 253.293 1374.69 298.928 1363.79 341.438V341.313Z" fill="#F0B8B1"/>
<path d="M1232.27 377.946C1173.14 363.693 1141.74 322.809 1125.62 290.426C1107.85 254.793 1104.65 221.786 1104.53 221.411V220.536L1105.24 220.285C1105.72 220.16 1144.94 208.783 1188.66 209.908C1188.66 210.533 1188.66 211.158 1188.54 211.909C1148.38 210.908 1112.12 220.411 1106.43 221.911C1107.02 227.162 1111.17 257.169 1127.17 289.426C1142.92 321.058 1173.61 361.193 1231.2 375.446L1232.15 377.696L1232.27 377.946Z" fill="#F0B8B1"/>
<path d="M1247.2 236.664C1247.2 236.664 1248.38 237.289 1248.97 237.664C1236.77 250.917 1225.99 265.671 1216.51 281.174H1214.26C1223.74 265.046 1234.76 250.167 1247.32 236.664H1247.2Z" fill="#F0B8B1"/>
<path d="M1390.33 335.937C1385.36 342.813 1377.77 351.94 1371.61 358.567C1370.9 357.067 1370.19 355.441 1369.48 353.941C1375.29 347.814 1382.04 340.188 1387.14 333.311C1423.63 284.925 1445.43 218.785 1424.82 158.271C1395.31 158.271 1365.81 164.273 1338.2 175.525C1337.37 175.9 1336.54 176.276 1335.59 176.526C1310.95 186.778 1287.84 201.281 1267.58 219.16C1266.98 218.785 1266.51 218.535 1265.92 218.16C1286.42 200.031 1309.64 185.403 1334.41 174.9C1335.24 174.525 1336.07 174.15 1336.89 173.9C1355.02 166.523 1373.86 161.272 1393.3 158.647C1403.96 157.146 1414.63 156.146 1425.41 156.396H1426L1426.24 157.021C1448.04 218.285 1426.83 286.175 1390.1 335.937H1390.33Z" fill="#F0B8B1"/>
</g>
</g>
<defs>
<clipPath id="clip0_26_128">
<rect width="1440" height="753" fill="white"/>
</clipPath>
</defs>
</svg>
