<svg fill="none" xmlns="http://www.w3.org/2000/svg" viewBox="0 0 64 44"> <path fill-rule="evenodd" clip-rule="evenodd" d="M4.92308 0C2.20414 1.00665e-07 2.53746e-07 2.23858 0 5V39C0 41.7614 2.20414 44 4.92308 44H59.0769C61.7959 44 64 41.7614 64 39V5C64 2.23858 61.7959 0 59.0769 0H4.92308ZM59.0769 1C61.2521 1 63.0154 2.79086 63.0154 5V39C63.0154 41.2091 61.2521 43 59.0769 43H4.92308C2.74793 43 0.984615 41.2091 0.984615 39V5C0.984615 2.79086 2.74793 1 4.92308 1H59.0769Z" fill="white"></path> <path d="M60.5538 1.29076L40.6365 20.8145L40.6173 20.8359L40.6154 20.8379C40.6136 20.8399 40.6108 20.844 40.6067 20.8486C40.5986 20.8578 40.586 20.8718 40.5692 20.8906C40.535 20.9289 40.4824 20.9866 40.4144 21.0605C40.2784 21.2085 40.0781 21.4222 39.825 21.6807C39.3173 22.1991 38.6016 22.8929 37.7702 23.5947C36.9363 24.2986 36.0018 24.9971 35.0558 25.5371C34.0998 26.0827 33.1929 26.431 32.4029 26.5039C31.6843 26.5702 30.8044 26.3284 29.8173 25.8164C28.8445 25.3118 27.8607 24.5935 26.9683 23.8398C26.0799 23.0896 25.3058 22.325 24.7529 21.7461C24.4773 21.4575 24.2578 21.2172 24.1087 21.0498C24.0342 20.9663 23.9771 20.901 23.9394 20.8574C23.9208 20.8359 23.9071 20.8191 23.8981 20.8086C23.8937 20.8034 23.8904 20.7992 23.8885 20.7969L23.8856 20.7939L23.8538 20.7559L23.8173 20.7217L3.44423 1H1.96923V2.33301L21.7221 21.4541L1.47692 41.5L1.96923 42L2.95385 42.5L23.1 22.8828C23.175 22.9631 23.2541 23.0494 23.3394 23.1387C23.925 23.7518 24.751 24.5691 25.7087 25.3779C26.6623 26.1833 27.771 27.0011 28.9212 27.5977C30.057 28.1868 31.3311 28.6116 32.5817 28.4961C33.7609 28.3872 34.9465 27.8946 36.0212 27.2812C37.1057 26.6622 38.1407 25.8834 39.0298 25.1328C39.9213 24.3802 40.6828 23.6415 41.2212 23.0918C41.2713 23.0406 41.3172 22.9883 41.3635 22.9404L61.0462 43L61.5385 42.5L62.5231 42L42.7375 21.5078L62.5231 2L61.0462 1L60.5538 1.29076Z" fill="white"></path> </svg>