<svg fill="none" xmlns="http://www.w3.org/2000/svg" viewBox="0 0 65.81 66.1"> <path d="M63.6638 53.3053C57.7337 57.9777 54.352 60.6855 48.6567 64.7355C48.105 65.1278 47.3799 65.21 46.7527 64.9552C21.6721 54.7667 11.4375 43.849 1.15406 19.2904C0.912281 18.713 0.957633 18.0435 1.27234 17.5024C5.03156 11.0385 5.25113 10.0727 12.2689 2.36439C17.9863 -3.91556 25.7299 13.248 27.7632 18.1175C28.0791 18.8743 27.8732 19.7296 27.2706 20.2859L22.7094 24.4963C22.1361 25.0255 21.9211 25.8427 22.1736 26.5809C25.6541 36.7544 29.5674 40.6957 38.3922 43.3396C39.5273 43.6797 40.7458 43.2682 41.486 42.343L45.1114 37.8112C45.7645 36.9949 46.9361 36.8192 47.7998 37.4082L57.2689 43.8644L63.5915 48.5231C65.1887 49.6999 65.2222 52.0774 63.6638 53.3053Z" stroke="white" stroke-width="2"></path> </svg>