<svg fill="none" xmlns="http://www.w3.org/2000/svg" viewBox="0 0 66 62"> <path d="M5 4C2.23858 4 5.15422e-07 6.23858 0 9V57C4.83208e-08 59.7614 2.23858 62 5 62H61C63.7614 62 66 59.7614 66 57V9C66 6.23858 63.7614 4 61 4H5ZM60 6C62.2091 6 64 7.79086 64 10V56C64 58.2091 62.2091 60 60 60H6C3.79086 60 2 58.2091 2 56V10C2 7.79086 3.79086 6 6 6H60Z" fill="white"></path> <mask id="path-2-inside-1_14_78" fill="white"> <path d="M48.75 25C47.0931 25 45.75 26.3431 45.75 28V34.5C45.75 36.1569 47.0931 37.5 48.75 37.5H55.25C56.9069 37.5 58.25 36.1569 58.25 34.5V28C58.25 26.3431 56.9069 25 55.25 25H48.75ZM55.25 26C56.3546 26 57.25 26.8954 57.25 28V34.5C57.25 35.6046 56.3546 36.5 55.25 36.5H48.75C47.6454 36.5 46.75 35.6046 46.75 34.5V28C46.75 26.8954 47.6454 26 48.75 26H55.25Z"></path> </mask> <path d="M48.75 25C47.0931 25 45.75 26.3431 45.75 28V34.5C45.75 36.1569 47.0931 37.5 48.75 37.5H55.25C56.9069 37.5 58.25 36.1569 58.25 34.5V28C58.25 26.3431 56.9069 25 55.25 25H48.75ZM55.25 26C56.3546 26 57.25 26.8954 57.25 28V34.5C57.25 35.6046 56.3546 36.5 55.25 36.5H48.75C47.6454 36.5 46.75 35.6046 46.75 34.5V28C46.75 26.8954 47.6454 26 48.75 26H55.25Z" fill="white"></path> <path d="M45.75 28L45.55 28V28L45.75 28ZM48.75 37.5L48.75 37.7H48.75L48.75 37.5ZM58.25 34.5L58.45 34.5V34.5L58.25 34.5ZM55.25 25L55.25 24.8H55.25L55.25 25ZM57.25 28L57.45 28V28H57.25ZM55.25 36.5L55.25 36.7H55.25V36.5ZM46.75 34.5L46.55 34.5V34.5H46.75ZM48.75 26L48.75 25.8H48.75V26ZM48.75 25V25.2C47.2036 25.2 45.95 26.4536 45.95 28L45.75 28L45.55 28C45.55 26.2327 46.9827 24.8 48.75 24.8V25ZM45.75 28H45.95V34.5H45.75H45.55V28H45.75ZM45.75 34.5H45.95C45.95 36.0464 47.2036 37.3 48.75 37.3L48.75 37.5L48.75 37.7C46.9827 37.7 45.55 36.2673 45.55 34.5H45.75ZM48.75 37.5V37.3H55.25V37.5V37.7H48.75V37.5ZM55.25 37.5V37.3C56.7964 37.3 58.05 36.0464 58.05 34.5L58.25 34.5L58.45 34.5C58.45 36.2673 57.0173 37.7 55.25 37.7V37.5ZM58.25 34.5H58.05V28H58.25H58.45V34.5H58.25ZM58.25 28H58.05C58.05 26.4536 56.7964 25.2 55.25 25.2L55.25 25L55.25 24.8C57.0173 24.8 58.45 26.2327 58.45 28H58.25ZM55.25 25V25.2H48.75V25V24.8H55.25V25ZM55.25 26V25.8C56.465 25.8 57.45 26.785 57.45 28L57.25 28L57.05 28C57.05 27.0059 56.2441 26.2 55.25 26.2V26ZM57.25 28H57.45V34.5H57.25H57.05V28H57.25ZM57.25 34.5H57.45C57.45 35.715 56.465 36.7 55.25 36.7L55.25 36.5L55.25 36.3C56.2441 36.3 57.05 35.4941 57.05 34.5H57.25ZM55.25 36.5V36.7H48.75V36.5V36.3H55.25V36.5ZM48.75 36.5V36.7C47.535 36.7 46.55 35.715 46.55 34.5L46.75 34.5L46.95 34.5C46.95 35.4941 47.7559 36.3 48.75 36.3V36.5ZM46.75 34.5H46.55V28H46.75H46.95V34.5H46.75ZM46.75 28H46.55C46.55 26.785 47.535 25.8 48.75 25.8L48.75 26L48.75 26.2C47.7559 26.2 46.95 27.0059 46.95 28H46.75ZM48.75 26V25.8H55.25V26V26.2H48.75V26Z" fill="white" mask="url(#path-2-inside-1_14_78)"></path> <mask id="path-4-inside-2_14_78" fill="white"> <path d="M30.25 25C28.5931 25 27.25 26.3431 27.25 28V34.5C27.25 36.1569 28.5931 37.5 30.25 37.5H36.75C38.4069 37.5 39.75 36.1569 39.75 34.5V28C39.75 26.3431 38.4069 25 36.75 25H30.25ZM36.75 26C37.8546 26 38.75 26.8954 38.75 28V34.5C38.75 35.6046 37.8546 36.5 36.75 36.5H30.25C29.1454 36.5 28.25 35.6046 28.25 34.5V28C28.25 26.8954 29.1454 26 30.25 26H36.75Z"></path> </mask> <path d="M30.25 25C28.5931 25 27.25 26.3431 27.25 28V34.5C27.25 36.1569 28.5931 37.5 30.25 37.5H36.75C38.4069 37.5 39.75 36.1569 39.75 34.5V28C39.75 26.3431 38.4069 25 36.75 25H30.25ZM36.75 26C37.8546 26 38.75 26.8954 38.75 28V34.5C38.75 35.6046 37.8546 36.5 36.75 36.5H30.25C29.1454 36.5 28.25 35.6046 28.25 34.5V28C28.25 26.8954 29.1454 26 30.25 26H36.75Z" fill="white"></path> <path d="M27.25 28L27.05 28V28L27.25 28ZM30.25 37.5L30.25 37.7H30.25L30.25 37.5ZM39.75 34.5L39.95 34.5V34.5L39.75 34.5ZM36.75 25L36.75 24.8H36.75L36.75 25ZM38.75 28L38.95 28V28H38.75ZM36.75 36.5L36.75 36.7H36.75V36.5ZM28.25 34.5L28.05 34.5V34.5H28.25ZM30.25 26L30.25 25.8H30.25V26ZM30.25 25V25.2C28.7036 25.2 27.45 26.4536 27.45 28L27.25 28L27.05 28C27.05 26.2327 28.4827 24.8 30.25 24.8V25ZM27.25 28H27.45V34.5H27.25H27.05V28H27.25ZM27.25 34.5H27.45C27.45 36.0464 28.7036 37.3 30.25 37.3L30.25 37.5L30.25 37.7C28.4827 37.7 27.05 36.2673 27.05 34.5H27.25ZM30.25 37.5V37.3H36.75V37.5V37.7H30.25V37.5ZM36.75 37.5V37.3C38.2964 37.3 39.55 36.0464 39.55 34.5L39.75 34.5L39.95 34.5C39.95 36.2673 38.5173 37.7 36.75 37.7V37.5ZM39.75 34.5H39.55V28H39.75H39.95V34.5H39.75ZM39.75 28H39.55C39.55 26.4536 38.2964 25.2 36.75 25.2L36.75 25L36.75 24.8C38.5173 24.8 39.95 26.2327 39.95 28H39.75ZM36.75 25V25.2H30.25V25V24.8H36.75V25ZM36.75 26V25.8C37.965 25.8 38.95 26.785 38.95 28L38.75 28L38.55 28C38.55 27.0059 37.7441 26.2 36.75 26.2V26ZM38.75 28H38.95V34.5H38.75H38.55V28H38.75ZM38.75 34.5H38.95C38.95 35.715 37.965 36.7 36.75 36.7L36.75 36.5L36.75 36.3C37.7441 36.3 38.55 35.4941 38.55 34.5H38.75ZM36.75 36.5V36.7H30.25V36.5V36.3H36.75V36.5ZM30.25 36.5V36.7C29.035 36.7 28.05 35.715 28.05 34.5L28.25 34.5L28.45 34.5C28.45 35.4941 29.2559 36.3 30.25 36.3V36.5ZM28.25 34.5H28.05V28H28.25H28.45V34.5H28.25ZM28.25 28H28.05C28.05 26.785 29.035 25.8 30.25 25.8L30.25 26L30.25 26.2C29.2559 26.2 28.45 27.0059 28.45 28H28.25ZM30.25 26V25.8H36.75V26V26.2H30.25V26Z" fill="white" mask="url(#path-4-inside-2_14_78)"></path> <mask id="path-6-inside-3_14_78" fill="white"> <path d="M11.75 25C10.0931 25 8.75 26.3431 8.75 28V34.5C8.75 36.1569 10.0931 37.5 11.75 37.5H18.25C19.9069 37.5 21.25 36.1569 21.25 34.5V28C21.25 26.3431 19.9069 25 18.25 25H11.75ZM18.25 26C19.3546 26 20.25 26.8954 20.25 28V34.5C20.25 35.6046 19.3546 36.5 18.25 36.5H11.75C10.6454 36.5 9.75 35.6046 9.75 34.5V28C9.75 26.8954 10.6454 26 11.75 26H18.25Z"></path> </mask> <path d="M11.75 25C10.0931 25 8.75 26.3431 8.75 28V34.5C8.75 36.1569 10.0931 37.5 11.75 37.5H18.25C19.9069 37.5 21.25 36.1569 21.25 34.5V28C21.25 26.3431 19.9069 25 18.25 25H11.75ZM18.25 26C19.3546 26 20.25 26.8954 20.25 28V34.5C20.25 35.6046 19.3546 36.5 18.25 36.5H11.75C10.6454 36.5 9.75 35.6046 9.75 34.5V28C9.75 26.8954 10.6454 26 11.75 26H18.25Z" fill="white"></path> <path d="M8.75 28L8.55 28V28L8.75 28ZM11.75 37.5L11.75 37.7H11.75L11.75 37.5ZM21.25 34.5L21.45 34.5V34.5L21.25 34.5ZM18.25 25L18.25 24.8H18.25L18.25 25ZM20.25 28L20.45 28V28H20.25ZM18.25 36.5L18.25 36.7H18.25V36.5ZM9.75 34.5L9.55 34.5V34.5H9.75ZM11.75 26L11.75 25.8H11.75V26ZM11.75 25V25.2C10.2036 25.2 8.95 26.4536 8.95 28L8.75 28L8.55 28C8.55 26.2327 9.98269 24.8 11.75 24.8V25ZM8.75 28H8.95V34.5H8.75H8.55V28H8.75ZM8.75 34.5H8.95C8.95 36.0464 10.2036 37.3 11.75 37.3L11.75 37.5L11.75 37.7C9.98269 37.7 8.55 36.2673 8.55 34.5H8.75ZM11.75 37.5V37.3H18.25V37.5V37.7H11.75V37.5ZM18.25 37.5V37.3C19.7964 37.3 21.05 36.0464 21.05 34.5L21.25 34.5L21.45 34.5C21.45 36.2673 20.0173 37.7 18.25 37.7V37.5ZM21.25 34.5H21.05V28H21.25H21.45V34.5H21.25ZM21.25 28H21.05C21.05 26.4536 19.7964 25.2 18.25 25.2L18.25 25L18.25 24.8C20.0173 24.8 21.45 26.2327 21.45 28H21.25ZM18.25 25V25.2H11.75V25V24.8H18.25V25ZM18.25 26V25.8C19.465 25.8 20.45 26.785 20.45 28L20.25 28L20.05 28C20.05 27.0059 19.2441 26.2 18.25 26.2V26ZM20.25 28H20.45V34.5H20.25H20.05V28H20.25ZM20.25 34.5H20.45C20.45 35.715 19.465 36.7 18.25 36.7L18.25 36.5L18.25 36.3C19.2441 36.3 20.05 35.4941 20.05 34.5H20.25ZM18.25 36.5V36.7H11.75V36.5V36.3H18.25V36.5ZM11.75 36.5V36.7C10.535 36.7 9.55 35.715 9.55 34.5L9.75 34.5L9.95 34.5C9.95 35.4941 10.7559 36.3 11.75 36.3V36.5ZM9.75 34.5H9.55V28H9.75H9.95V34.5H9.75ZM9.75 28H9.55C9.55 26.785 10.535 25.8 11.75 25.8L11.75 26L11.75 26.2C10.7559 26.2 9.95 27.0059 9.95 28H9.75ZM11.75 26V25.8H18.25V26V26.2H11.75V26Z" fill="white" mask="url(#path-6-inside-3_14_78)"></path> <mask id="path-8-inside-4_14_78" fill="white"> <path d="M48.75 42.5C47.0931 42.5 45.75 43.8431 45.75 45.5V52C45.75 53.6569 47.0931 55 48.75 55H55.25C56.9069 55 58.25 53.6569 58.25 52V45.5C58.25 43.8431 56.9069 42.5 55.25 42.5H48.75ZM55.25 43.5C56.3546 43.5 57.25 44.3954 57.25 45.5V52C57.25 53.1046 56.3546 54 55.25 54H48.75C47.6454 54 46.75 53.1046 46.75 52V45.5C46.75 44.3954 47.6454 43.5 48.75 43.5H55.25Z"></path> </mask> <path d="M48.75 42.5C47.0931 42.5 45.75 43.8431 45.75 45.5V52C45.75 53.6569 47.0931 55 48.75 55H55.25C56.9069 55 58.25 53.6569 58.25 52V45.5C58.25 43.8431 56.9069 42.5 55.25 42.5H48.75ZM55.25 43.5C56.3546 43.5 57.25 44.3954 57.25 45.5V52C57.25 53.1046 56.3546 54 55.25 54H48.75C47.6454 54 46.75 53.1046 46.75 52V45.5C46.75 44.3954 47.6454 43.5 48.75 43.5H55.25Z" fill="white"></path> <path d="M45.75 45.5L45.55 45.5V45.5L45.75 45.5ZM48.75 55L48.75 55.2H48.75L48.75 55ZM58.25 52L58.45 52V52L58.25 52ZM55.25 42.5L55.25 42.3H55.25L55.25 42.5ZM57.25 45.5L57.45 45.5V45.5H57.25ZM55.25 54L55.25 54.2H55.25V54ZM46.75 52L46.55 52V52H46.75ZM48.75 43.5L48.75 43.3H48.75V43.5ZM48.75 42.5V42.7C47.2036 42.7 45.95 43.9536 45.95 45.5L45.75 45.5L45.55 45.5C45.55 43.7327 46.9827 42.3 48.75 42.3V42.5ZM45.75 45.5H45.95V52H45.75H45.55V45.5H45.75ZM45.75 52H45.95C45.95 53.5464 47.2036 54.8 48.75 54.8L48.75 55L48.75 55.2C46.9827 55.2 45.55 53.7673 45.55 52H45.75ZM48.75 55V54.8H55.25V55V55.2H48.75V55ZM55.25 55V54.8C56.7964 54.8 58.05 53.5464 58.05 52L58.25 52L58.45 52C58.45 53.7673 57.0173 55.2 55.25 55.2V55ZM58.25 52H58.05V45.5H58.25H58.45V52H58.25ZM58.25 45.5H58.05C58.05 43.9536 56.7964 42.7 55.25 42.7L55.25 42.5L55.25 42.3C57.0173 42.3 58.45 43.7327 58.45 45.5H58.25ZM55.25 42.5V42.7H48.75V42.5V42.3H55.25V42.5ZM55.25 43.5V43.3C56.465 43.3 57.45 44.285 57.45 45.5L57.25 45.5L57.05 45.5C57.05 44.5059 56.2441 43.7 55.25 43.7V43.5ZM57.25 45.5H57.45V52H57.25H57.05V45.5H57.25ZM57.25 52H57.45C57.45 53.215 56.465 54.2 55.25 54.2L55.25 54L55.25 53.8C56.2441 53.8 57.05 52.9941 57.05 52H57.25ZM55.25 54V54.2H48.75V54V53.8H55.25V54ZM48.75 54V54.2C47.535 54.2 46.55 53.215 46.55 52L46.75 52L46.95 52C46.95 52.9941 47.7559 53.8 48.75 53.8V54ZM46.75 52H46.55V45.5H46.75H46.95V52H46.75ZM46.75 45.5H46.55C46.55 44.285 47.535 43.3 48.75 43.3L48.75 43.5L48.75 43.7C47.7559 43.7 46.95 44.5059 46.95 45.5H46.75ZM48.75 43.5V43.3H55.25V43.5V43.7H48.75V43.5Z" fill="white" mask="url(#path-8-inside-4_14_78)"></path> <mask id="path-10-inside-5_14_78" fill="white"> <path d="M30.25 42.5C28.5931 42.5 27.25 43.8431 27.25 45.5V52C27.25 53.6569 28.5931 55 30.25 55H36.75C38.4069 55 39.75 53.6569 39.75 52V45.5C39.75 43.8431 38.4069 42.5 36.75 42.5H30.25ZM36.75 43.5C37.8546 43.5 38.75 44.3954 38.75 45.5V52C38.75 53.1046 37.8546 54 36.75 54H30.25C29.1454 54 28.25 53.1046 28.25 52V45.5C28.25 44.3954 29.1454 43.5 30.25 43.5H36.75Z"></path> </mask> <path d="M30.25 42.5C28.5931 42.5 27.25 43.8431 27.25 45.5V52C27.25 53.6569 28.5931 55 30.25 55H36.75C38.4069 55 39.75 53.6569 39.75 52V45.5C39.75 43.8431 38.4069 42.5 36.75 42.5H30.25ZM36.75 43.5C37.8546 43.5 38.75 44.3954 38.75 45.5V52C38.75 53.1046 37.8546 54 36.75 54H30.25C29.1454 54 28.25 53.1046 28.25 52V45.5C28.25 44.3954 29.1454 43.5 30.25 43.5H36.75Z" fill="white"></path> <path d="M27.25 45.5L27.05 45.5V45.5L27.25 45.5ZM30.25 55L30.25 55.2H30.25L30.25 55ZM39.75 52L39.95 52V52L39.75 52ZM36.75 42.5L36.75 42.3H36.75L36.75 42.5ZM38.75 45.5L38.95 45.5V45.5H38.75ZM36.75 54L36.75 54.2H36.75V54ZM28.25 52L28.05 52V52H28.25ZM30.25 43.5L30.25 43.3H30.25V43.5ZM30.25 42.5V42.7C28.7036 42.7 27.45 43.9536 27.45 45.5L27.25 45.5L27.05 45.5C27.05 43.7327 28.4827 42.3 30.25 42.3V42.5ZM27.25 45.5H27.45V52H27.25H27.05V45.5H27.25ZM27.25 52H27.45C27.45 53.5464 28.7036 54.8 30.25 54.8L30.25 55L30.25 55.2C28.4827 55.2 27.05 53.7673 27.05 52H27.25ZM30.25 55V54.8H36.75V55V55.2H30.25V55ZM36.75 55V54.8C38.2964 54.8 39.55 53.5464 39.55 52L39.75 52L39.95 52C39.95 53.7673 38.5173 55.2 36.75 55.2V55ZM39.75 52H39.55V45.5H39.75H39.95V52H39.75ZM39.75 45.5H39.55C39.55 43.9536 38.2964 42.7 36.75 42.7L36.75 42.5L36.75 42.3C38.5173 42.3 39.95 43.7327 39.95 45.5H39.75ZM36.75 42.5V42.7H30.25V42.5V42.3H36.75V42.5ZM36.75 43.5V43.3C37.965 43.3 38.95 44.285 38.95 45.5L38.75 45.5L38.55 45.5C38.55 44.5059 37.7441 43.7 36.75 43.7V43.5ZM38.75 45.5H38.95V52H38.75H38.55V45.5H38.75ZM38.75 52H38.95C38.95 53.215 37.965 54.2 36.75 54.2L36.75 54L36.75 53.8C37.7441 53.8 38.55 52.9941 38.55 52H38.75ZM36.75 54V54.2H30.25V54V53.8H36.75V54ZM30.25 54V54.2C29.035 54.2 28.05 53.215 28.05 52L28.25 52L28.45 52C28.45 52.9941 29.2559 53.8 30.25 53.8V54ZM28.25 52H28.05V45.5H28.25H28.45V52H28.25ZM28.25 45.5H28.05C28.05 44.285 29.035 43.3 30.25 43.3L30.25 43.5L30.25 43.7C29.2559 43.7 28.45 44.5059 28.45 45.5H28.25ZM30.25 43.5V43.3H36.75V43.5V43.7H30.25V43.5Z" fill="white" mask="url(#path-10-inside-5_14_78)"></path> <mask id="path-12-inside-6_14_78" fill="white"> <path d="M11.75 42.5C10.0931 42.5 8.75 43.8431 8.75 45.5V52C8.75 53.6569 10.0931 55 11.75 55H18.25C19.9069 55 21.25 53.6569 21.25 52V45.5C21.25 43.8431 19.9069 42.5 18.25 42.5H11.75ZM18.25 43.5C19.3546 43.5 20.25 44.3954 20.25 45.5V52C20.25 53.1046 19.3546 54 18.25 54H11.75C10.6454 54 9.75 53.1046 9.75 52V45.5C9.75 44.3954 10.6454 43.5 11.75 43.5H18.25Z"></path> </mask> <path d="M11.75 42.5C10.0931 42.5 8.75 43.8431 8.75 45.5V52C8.75 53.6569 10.0931 55 11.75 55H18.25C19.9069 55 21.25 53.6569 21.25 52V45.5C21.25 43.8431 19.9069 42.5 18.25 42.5H11.75ZM18.25 43.5C19.3546 43.5 20.25 44.3954 20.25 45.5V52C20.25 53.1046 19.3546 54 18.25 54H11.75C10.6454 54 9.75 53.1046 9.75 52V45.5C9.75 44.3954 10.6454 43.5 11.75 43.5H18.25Z" fill="white"></path> <path d="M8.75 45.5L8.55 45.5V45.5L8.75 45.5ZM11.75 55L11.75 55.2H11.75L11.75 55ZM21.25 52L21.45 52V52L21.25 52ZM18.25 42.5L18.25 42.3H18.25L18.25 42.5ZM20.25 45.5L20.45 45.5V45.5H20.25ZM18.25 54L18.25 54.2H18.25V54ZM9.75 52L9.55 52V52H9.75ZM11.75 43.5L11.75 43.3H11.75V43.5ZM11.75 42.5V42.7C10.2036 42.7 8.95 43.9536 8.95 45.5L8.75 45.5L8.55 45.5C8.55 43.7327 9.98269 42.3 11.75 42.3V42.5ZM8.75 45.5H8.95V52H8.75H8.55V45.5H8.75ZM8.75 52H8.95C8.95 53.5464 10.2036 54.8 11.75 54.8L11.75 55L11.75 55.2C9.98269 55.2 8.55 53.7673 8.55 52H8.75ZM11.75 55V54.8H18.25V55V55.2H11.75V55ZM18.25 55V54.8C19.7964 54.8 21.05 53.5464 21.05 52L21.25 52L21.45 52C21.45 53.7673 20.0173 55.2 18.25 55.2V55ZM21.25 52H21.05V45.5H21.25H21.45V52H21.25ZM21.25 45.5H21.05C21.05 43.9536 19.7964 42.7 18.25 42.7L18.25 42.5L18.25 42.3C20.0173 42.3 21.45 43.7327 21.45 45.5H21.25ZM18.25 42.5V42.7H11.75V42.5V42.3H18.25V42.5ZM18.25 43.5V43.3C19.465 43.3 20.45 44.285 20.45 45.5L20.25 45.5L20.05 45.5C20.05 44.5059 19.2441 43.7 18.25 43.7V43.5ZM20.25 45.5H20.45V52H20.25H20.05V45.5H20.25ZM20.25 52H20.45C20.45 53.215 19.465 54.2 18.25 54.2L18.25 54L18.25 53.8C19.2441 53.8 20.05 52.9941 20.05 52H20.25ZM18.25 54V54.2H11.75V54V53.8H18.25V54ZM11.75 54V54.2C10.535 54.2 9.55 53.215 9.55 52L9.75 52L9.95 52C9.95 52.9941 10.7559 53.8 11.75 53.8V54ZM9.75 52H9.55V45.5H9.75H9.95V52H9.75ZM9.75 45.5H9.55C9.55 44.285 10.535 43.3 11.75 43.3L11.75 43.5L11.75 43.7C10.7559 43.7 9.95 44.5059 9.95 45.5H9.75ZM11.75 43.5V43.3H18.25V43.5V43.7H11.75V43.5Z" fill="white" mask="url(#path-12-inside-6_14_78)"></path> <line x1="2" y1="19" x2="65" y2="19" stroke="white" stroke-width="2"></line> <line x1="49.75" y1="0.75" x2="49.75" y2="10.25" stroke="white" stroke-width="1.5" stroke-linecap="round"></line> <line x1="32.75" y1="0.75" x2="32.75" y2="10.25" stroke="white" stroke-width="1.5" stroke-linecap="round"></line> <line x1="15.75" y1="0.75" x2="15.75" y2="10.25" stroke="white" stroke-width="1.5" stroke-linecap="round"></line> </svg>