<svg fill="none" xmlns="http://www.w3.org/2000/svg" viewBox="0 0.65 63.85 62.15"> <path d="M61.611 46.3807C61.6006 46.406 61.5937 46.4343 61.5885 46.4596L59.5163 55.4419C33.1171 53.9461 8.82307 55.183 4.33442 55.439L2.26566 46.4596C2.2601 46.4329 2.25259 46.4066 2.24318 46.3807C-0.3912 39.3303 7.03107 29.6157 7.10718 29.5175C7.14234 29.4718 7.17136 29.4229 7.19366 29.3716C9.00123 25.2057 13.7044 7.07728 14.4291 4.25979L18.3158 2.63152C17.2365 8.10426 14.2596 27.3236 25.1638 29.4252C25.2815 29.4445 28.0819 29.9283 31.8752 30.1247C31.9098 30.1277 31.9444 30.1277 31.979 30.1247C33.1078 30.066 34.2344 29.9782 35.3571 29.8613H35.3762L35.39 29.8583C37.3446 29.6559 38.6159 29.4356 38.7076 29.4222C47.6365 27.7031 47.2386 14.4671 46.2129 6.7424C46.2141 6.67917 46.2053 6.61609 46.187 6.55486C45.969 4.94593 45.7269 3.57812 45.54 2.63449L49.4302 4.26277C50.155 7.07728 54.8581 25.2057 56.6622 29.3746C56.6847 29.4252 56.7141 29.4758 56.7504 29.5204C56.8265 29.6157 64.2453 39.3273 61.611 46.3807ZM58.1515 61.3597H5.69918L4.66307 56.8648C9.58588 56.5895 33.3437 55.4166 59.1876 56.8678L58.1515 61.3597ZM27.7688 28.3283C26.3798 28.1645 25.5167 28.0157 25.5098 28.0157C18.3833 26.6434 18.3297 15.7485 19.1444 8.36026C21.8722 11.0884 28.203 18.5258 27.7688 28.3283ZM30.3115 7.37942C30.699 7.4077 31.0916 7.4211 31.4808 7.4211C35.6114 7.4211 39.7697 5.85831 43.8657 2.77291C44.0352 3.65105 44.2635 4.92956 44.4763 6.46259C42.6168 8.09979 33.8505 16.5017 34.4525 28.4994C33.6845 28.5694 32.8352 28.6378 31.9288 28.6855C31.0959 28.6404 30.2643 28.5794 29.4345 28.5024C30.0434 16.4406 21.1785 8.01496 19.3813 6.43877C19.5837 5.01291 19.793 3.81626 19.9591 2.953C21.7113 4.48603 25.316 7.02221 30.3115 7.37942ZM44.715 8.38854C45.5314 15.7768 45.4674 26.6464 38.3582 28.0142C38.3409 28.0157 37.4882 28.163 36.1147 28.3268C35.6875 18.5556 41.9733 11.1391 44.715 8.38854ZM58.1965 28.7926C56.2938 24.3037 51.0267 3.81775 50.9731 3.60938C50.9455 3.50381 50.8908 3.40491 50.813 3.31992C50.7352 3.23493 50.6362 3.16601 50.5234 3.11821L44.7807 0.714492C44.7755 0.714492 44.7651 0.714492 44.7582 0.710027C44.7409 0.702585 44.7236 0.702585 44.7029 0.696632C44.6295 0.673159 44.5526 0.659116 44.4745 0.654958C44.4486 0.651981 44.4226 0.651981 44.3967 0.651981C44.3073 0.653565 44.2187 0.666607 44.1338 0.690678C44.1286 0.693655 44.1165 0.693655 44.1113 0.696632C44.0367 0.721499 43.9668 0.755595 43.9037 0.797841C43.8864 0.809748 43.876 0.823144 43.8639 0.835051L43.8363 0.848446C39.3563 4.54407 34.8555 6.26017 30.4603 5.95059C24.1571 5.50705 20.1442 0.982399 20.0992 0.934772C20.0975 0.930306 20.0905 0.930306 20.0871 0.924353C20.0452 0.877469 19.997 0.835004 19.9435 0.797841C19.9227 0.782958 19.9003 0.778492 19.8812 0.768074C19.8587 0.75319 19.8345 0.74426 19.8086 0.733841C19.7384 0.703211 19.664 0.680213 19.5872 0.665376L19.5353 0.654958C19.4402 0.644276 19.3436 0.647801 19.2499 0.665376L19.1842 0.683237C19.1426 0.693655 19.0994 0.69812 19.0613 0.715981L13.3256 3.11821C13.2127 3.16601 13.1138 3.23493 13.036 3.31992C12.9582 3.40491 12.9034 3.50381 12.8758 3.60938C12.8239 3.81775 7.55345 24.3037 5.65248 28.7926C4.89312 29.7943 -2.11055 39.3273 0.63626 46.7796L4.19431 62.22C4.27215 62.5578 4.61637 62.8004 5.01421 62.8004H58.8434C59.2412 62.8004 59.5837 62.5578 59.6633 62.22L63.2196 46.7796C65.9681 39.3273 58.9593 29.7928 58.1965 28.7926Z" fill="#2A513C"></path> </svg>