<svg fill="none" xmlns="http://www.w3.org/2000/svg" viewBox="0 0 53.49 53.2"> <path d="M25.4667 26.5333V30.5333H21.4667C20.6667 30.5333 20.1333 31.0667 20.1333 31.8667C20.1333 32.6667 20.6667 33.2 21.4667 33.2H25.4667V37.2C25.4667 38 26 38.5333 26.8 38.5333C27.6 38.5333 28.1333 38 28.1333 37.2V33.2H32.1333C32.9333 33.2 33.4667 32.6667 33.4667 31.8667C33.4667 31.0667 32.9333 30.5333 32.1333 30.5333H28.1333V26.5333C28.1333 25.7333 27.6 25.2 26.8 25.2C26 25.2 25.4667 25.7333 25.4667 26.5333ZM52.9333 22.8L27.6 0.4C27.0667 -0.133333 26.2667 -0.133333 25.7333 0.4L0.4 22.8C-0.133333 23.3333 -0.133333 24.1333 0.4 24.6667C0.933333 25.2 1.73333 25.2 2.26667 24.6667L5.46667 22V51.8667C5.46667 52.6667 6 53.2 6.8 53.2H46.8C47.6 53.2 48.1333 52.6667 48.1333 51.8667V22L51.3333 24.6667C51.6 24.9333 51.8667 24.9333 52.1333 24.9333C52.4 24.9333 52.9333 24.6667 53.2 24.4C53.7333 24.1333 53.4667 23.0667 52.9333 22.8ZM45.4667 50.5333H8.13333V19.6L26.8 3.06667L45.4667 19.6V50.5333Z" fill="#2A513C"></path> </svg>