<svg fill="none" xmlns="http://www.w3.org/2000/svg" viewBox="0 0 42.67 52"> <path d="M21.3333 52C18.3858 52 15.6187 51.4436 13.032 50.3307C10.4453 49.2178 8.18311 47.6924 6.24533 45.7547C4.30756 43.8169 2.78222 41.5538 1.66933 38.9653C0.556444 36.3769 0 33.6107 0 30.6667H2.66667C2.66667 35.8222 4.48889 40.2222 8.13333 43.8667C11.7778 47.5111 16.1778 49.3333 21.3333 49.3333C26.4889 49.3333 30.8889 47.5111 34.5333 43.8667C38.1778 40.2222 40 35.8222 40 30.6667H42.6667C42.6667 33.6142 42.1102 36.3813 40.9973 38.968C39.8844 41.5547 38.3591 43.8169 36.4213 45.7547C34.4836 47.6924 32.2204 49.2178 29.632 50.3307C27.0436 51.4436 24.2773 52 21.3333 52ZM0 30.6667C0 27.7191 0.556444 24.952 1.66933 22.3653C2.78222 19.7787 4.30756 17.5164 6.24533 15.5787C8.18311 13.6409 10.4462 12.1156 13.0347 11.0027C15.6231 9.88978 18.3893 9.33333 21.3333 9.33333C23.9182 9.33333 26.4178 9.79556 28.832 10.72C31.2462 11.6444 33.4613 12.9502 35.4773 14.6373L38.3893 11.7227L40.2773 13.6107L37.3653 16.5227C39.0542 18.5404 40.36 20.7564 41.2827 23.1707C42.2053 25.5849 42.6667 28.0836 42.6667 30.6667H40C40 25.5111 38.1778 21.1111 34.5333 17.4667C30.8889 13.8222 26.4889 12 21.3333 12C16.1778 12 11.7778 13.8222 8.13333 17.4667C4.48889 21.1111 2.66667 25.5111 2.66667 30.6667H0ZM14.36 2.66667V0H28.3067V2.66667H14.36ZM21.3333 12C16.416 12 12.1644 13.6702 8.57867 17.0107C4.99289 20.3511 3.03733 24.4587 2.712 29.3333H11.512L15.9547 38.144L26.6667 17.3333L32.832 29.3333H39.952C39.6284 24.4587 37.6729 20.3511 34.0853 17.0107C30.5031 13.6702 26.2524 12 21.3333 12ZM21.3333 49.3333C26.2507 49.3333 30.5022 47.6631 34.088 44.3227C37.6738 40.9822 39.6293 36.8747 39.9547 32H31.1547L26.712 23.1893L16 44L9.83733 32H2.70933C3.03467 36.8747 4.99022 40.9822 8.576 44.3227C12.1618 47.6631 16.4142 49.3333 21.3333 49.3333ZM21.3333 49.3333C16.1778 49.3333 11.7778 47.5111 8.13333 43.8667C4.48889 40.2222 2.66667 35.8222 2.66667 30.6667C2.66667 25.5111 4.48889 21.1111 8.13333 17.4667C11.7778 13.8222 16.1778 12 21.3333 12C26.4889 12 30.8889 13.8222 34.5333 17.4667C38.1778 21.1111 40 25.5111 40 30.6667C40 35.8222 38.1778 40.2222 34.5333 43.8667C30.8889 47.5111 26.4889 49.3333 21.3333 49.3333Z" fill="#2A513C"></path> </svg>