<svg fill="none" xmlns="http://www.w3.org/2000/svg" viewBox="2 0 62 62"> <path d="M35.4803 44.0717C30.355 44.0717 26.511 40.6824 25.3537 34.5651H22.667V31.9611L25.023 31.7957C24.9817 31.3824 24.9817 30.9691 24.9817 30.5144C24.9817 30.1011 24.9817 29.6877 25.023 29.2744H22.667V26.6704L25.3537 26.4637C26.5523 20.3464 30.479 16.7917 35.439 16.7917C38.4977 16.7917 40.8123 18.2384 42.135 20.3051L39.6137 22.4957C38.539 21.1731 37.3403 20.5117 35.687 20.5117C32.7937 20.5117 30.851 22.7024 30.107 26.4637H39.779V29.2744H29.8177C29.7763 29.6051 29.7763 29.9771 29.7763 30.3491C29.7763 30.8451 29.7763 31.2997 29.8177 31.7544H38.1257V34.5651H30.1897C30.975 38.2437 32.8763 40.3517 35.687 40.3517C37.5057 40.3517 38.787 39.5251 39.8617 37.9131L42.4243 39.6904C41.019 42.3771 38.6217 44.0717 35.4803 44.0717Z" fill="#2A513C"></path> <circle cx="33" cy="31" r="30" stroke="#2A513C" stroke-width="2"></circle> </svg>