<svg width="92" height="104" viewBox="0 0 92 104" fill="none" xmlns="http://www.w3.org/2000/svg">
<path d="M80.2033 47.2598L66.0787 81.1148C70.6003 89.2239 76.1069 95.418 84.3668 96.9075L84.2996 97.2857C66.8398 94.1414 59.9677 75.9845 53.0509 59.1516L43.0899 83.0534H42.5527L27.5998 47.378C26.0106 44.1391 25.6076 43.5954 22.3843 43.5954V43.1698H31.9424V43.5954C28.6072 43.5954 28.54 44.0209 30.7784 49.2221L43.6271 79.7436L52.648 58.2059C46.8281 44.0445 40.7619 30.9943 28.2042 28.6065C27.667 28.4883 27.1074 28.3937 26.5702 28.3228C26.5702 28.2046 26.5702 28.0864 26.5926 27.9445C27.0626 28.0154 27.5551 28.0864 28.0252 28.1809C49.8947 32.1291 55.2222 61.1612 65.6086 80.311L78.6811 48.9857C80.7853 43.9736 79.6884 43.5954 76.0398 43.5954V43.1698H85.6427V43.5954C82.5312 43.5954 81.7254 43.5953 80.2033 47.2598Z" fill="#00533B"/>
<path d="M48.9994 19.0316C48.8427 19.1025 48.686 19.1734 48.5294 19.2444C44.3211 13.854 38.6802 9.62217 32.5245 7.13978C28.8087 11.8681 26.2568 17.6131 25.16 23.6654C24.9138 25.0129 24.7347 26.3842 24.6452 27.7554C24.6452 27.8736 24.6452 27.9918 24.6228 28.1336C24.3989 31.8454 24.7347 35.6281 25.8987 39.1271C26.1225 39.789 26.3688 40.451 26.6374 41.0893H26.2792C26.0554 40.5692 25.8763 40.0254 25.6972 39.4817C24.4661 35.8409 24.0408 31.9636 24.2646 28.11C24.2646 27.9918 24.2646 27.8736 24.287 27.7317C24.8019 20.1191 27.8685 12.5774 32.3678 6.8088L32.4573 6.71423L32.5693 6.76152C38.904 9.26754 44.7016 13.5231 49.0442 19.0552L48.9994 19.0316Z" fill="#F0B8B1"/>
<path d="M55.3119 52.4373C55.1552 52.1063 54.9986 51.7754 54.8419 51.468C56.0954 46.4087 56.5207 41.0893 55.7596 35.8881C55.1105 31.2543 53.4764 26.9279 51.1484 23.0506C51.3051 22.9797 51.4618 22.9088 51.6409 22.8615C52.6482 24.5164 53.5212 26.2659 54.2375 28.0863C57.3937 35.7935 57.3713 44.4228 55.3119 52.461V52.4373Z" fill="#F0B8B1"/>
<path d="M30.4651 59.3644C19.2953 56.6692 13.3634 48.9384 10.3191 42.8152C6.96148 36.0773 6.3571 29.8358 6.33472 29.7649V29.5994L6.46902 29.5521C6.55856 29.5285 13.9678 27.3771 22.2277 27.5899C22.2277 27.7081 22.2277 27.8263 22.2053 27.9681C14.617 27.779 7.76732 29.5758 6.69287 29.8595C6.80479 30.8524 7.58824 36.5265 10.6101 42.626C13.5873 48.6074 19.3848 56.1964 30.2637 58.8915L30.4427 59.3171L30.4651 59.3644Z" fill="#F0B8B1"/>
<path d="M33.2856 32.6492C33.2856 32.6492 33.5095 32.7674 33.6214 32.8384C31.3158 35.3444 29.2788 38.1341 27.488 41.0657H27.0627C28.8535 38.0159 30.9353 35.2025 33.308 32.6492H33.2856Z" fill="#F0B8B1"/>
<path d="M60.3259 51.4208C59.3858 52.7211 57.9532 54.4469 56.7892 55.6999C56.6549 55.4162 56.5206 55.1089 56.3863 54.8252C57.4831 53.6667 58.759 52.2246 59.7215 50.9243C66.6159 41.7749 70.7347 29.2685 66.8398 17.8259C61.2661 17.8259 55.6923 18.9607 50.4768 21.0884C50.3201 21.1593 50.1634 21.2303 49.9843 21.2775C45.3283 23.2162 40.9634 25.9586 37.1356 29.3394C37.0237 29.2685 36.9342 29.2212 36.8223 29.1502C40.6948 25.7222 45.0821 22.9561 49.7605 20.9702C49.9172 20.8993 50.0738 20.8284 50.2305 20.7811C53.6554 19.3862 57.2145 18.3933 60.8855 17.8968C62.9001 17.6131 64.9147 17.4239 66.9517 17.4712H67.0636L67.1084 17.5894C71.2271 29.1739 67.2203 42.0114 60.2811 51.4208H60.3259Z" fill="#F0B8B1"/>
</svg>
